<svg xmlns="http://www.w3.org/2000/svg" viewBox="0 0 800 600" width="100%" height="100%"><defs><linearGradient id="sky" x1="0" y1="0" x2="0" y2="1"><stop offset="0%" stop-color="#E0F7FA"/><stop offset="100%" stop-color="#FFFFFF"/></linearGradient><linearGradient id="hareFur" x1="0" y1="0" x2="1" y2="1"><stop offset="0%" stop-color="#E2C2A4"/><stop offset="100%" stop-color="#C49A6C"/></linearGradient><linearGradient id="treeBark" x1="0" y1="0" x2="1" y2="0"><stop offset="0%" stop-color="#5C4033"/><stop offset="50%" stop-color="#8B5A2B"/><stop offset="100%" stop-color="#4A3020"/></linearGradient></defs><rect width="800" height="600" fill="url(#sky)"/><circle cx="680" cy="120" r="50" fill="#FFD54F" opacity="0.8"/><path d="M-100 500 Q 200 400 500 500 T 900 450 L 900 600 L -100 600 Z" fill="#A8E6CF" opacity="0.6"/><path d="M-50 550 Q 300 480 850 550 L 850 600 L -50 600 Z" fill="#81C784"/><path d="M 580 150 L 580 520 C 580 540 550 560 520 560 L 750 560 C 720 560 690 540 690 520 L 690 150 Z" fill="url(#treeBark)"/><circle cx="650" cy="100" r="80" fill="#388E3C" opacity="0.9"/><circle cx="560" cy="130" r="70" fill="#2E7D32" opacity="0.9"/><circle cx="720" cy="140" r="60" fill="#43A047" opacity="0.9"/><rect x="150" y="300" width="12" height="240" fill="#8D6E63" rx="4"/><path d="M 80 320 L 220 320 L 240 345 L 220 370 L 80 370 Z" fill="#FFCA28"/><text x="100" y="352" font-family="Arial, sans-serif" font-size="20" font-weight="900" fill="#3E2723">FINISH</text><text x="150" y="385" font-family="Arial, sans-serif" font-size="12" font-weight="bold" fill="#D84315">1 MILE</text><path d="M 190 340 L 210 345 L 190 350 Z" fill="#3E2723"/><ellipse cx="490" cy="540" rx="90" ry="20" fill="#1B5E20" opacity="0.3"/><ellipse cx="440" cy="520" rx="35" ry="15" fill="#FF5722" transform="rotate(-15 440 520)"/><path d="M 410 525 L 460 515" stroke="#FFFFFF" stroke-width="6" stroke-linecap="round"/><ellipse cx="500" cy="460" rx="60" ry="70" fill="url(#hareFur)" transform="rotate(10 500 460)"/><ellipse cx="485" cy="465" rx="45" ry="55" fill="#FFF3E0" transform="rotate(10 485 465)"/><ellipse cx="380" cy="535" rx="40" ry="18" fill="#FF5722" transform="rotate(-5 380 535)"/><path d="M 350 540 L 410 535" stroke="#FFFFFF" stroke-width="6" stroke-linecap="round"/><rect x="405" y="510" width="20" height="25" fill="#FFFFFF" rx="5" transform="rotate(-5 415 520)"/><path d="M 480 430 Q 440 460 450 490 Q 460 500 470 490" fill="none" stroke="url(#hareFur)" stroke-width="25" stroke-linecap="round"/><path d="M 480 430 Q 440 460 450 490 Q 460 500 470 490" fill="none" stroke="#FFF3E0" stroke-width="15" stroke-linecap="round"/><rect x="440" y="430" width="35" height="40" fill="#FFFFFF" rx="4" transform="rotate(15 457 450)"/><circle cx="445" cy="435" r="2" fill="#9E9E9E"/><circle cx="470" cy="440" r="2" fill="#9E9E9E"/><text x="444" y="460" font-family="Arial, sans-serif" font-size="22" font-weight="900" fill="#D32F2F" transform="rotate(15 457 450)">99</text><ellipse cx="430" cy="370" rx="50" ry="45" fill="url(#hareFur)" transform="rotate(-15 430 370)"/><ellipse cx="415" cy="380" rx="25" ry="20" fill="#FFF3E0" transform="rotate(-15 415 380)"/><path d="M 385 345 Q 430 330 475 355 L 470 370 Q 430 345 380 360 Z" fill="#0288D1"/><rect x="420" y="340" width="20" height="15" fill="#FFFFFF" transform="rotate(15 430 347)" opacity="0.8"/><path d="M 410 330 Q 340 370 350 460 Q 370 440 430 340" fill="url(#hareFur)"/><path d="M 410 340 Q 355 380 365 440 Q 375 420 420 350" fill="#F8BBD0"/><path d="M 460 330 Q 520 350 540 440 Q 520 420 470 340" fill="url(#hareFur)"/><path d="M 460 340 Q 505 360 520 425 Q 505 410 465 350" fill="#F8BBD0"/><path d="M 390 365 Q 405 380 420 365" fill="none" stroke="#3E2723" stroke-width="4" stroke-linecap="round"/><ellipse cx="385" cy="385" rx="6" ry="4" fill="#EC407A"/><path d="M 385 390 Q 395 395 405 390" fill="none" stroke="#3E2723" stroke-width="2" stroke-linecap="round"/><circle cx="430" cy="390" r="10" fill="#FFCDD2" opacity="0.6"/><circle cx="365" cy="395" r="16" fill="#E0F7FA" stroke="#80DEEA" stroke-width="2" opacity="0.7"><animate attributeName="r" values="14; 18; 14" dur="3s" repeatCount="indefinite"/></circle><path d="M 355 390 Q 360 385 368 388" fill="none" stroke="#FFFFFF" stroke-width="2" stroke-linecap="round"/><g font-family="Comic Sans MS, Arial, sans-serif" font-weight="900" fill="#7E57C2"><text x="340" y="310" font-size="24">Z<animate attributeName="opacity" values="0;1;0" dur="3s" begin="0s" repeatCount="indefinite"/><animate attributeName="y" values="310; 290; 270" dur="3s" begin="0s" repeatCount="indefinite"/></text><text x="300" y="270" font-size="36">Z<animate attributeName="opacity" values="0;1;0" dur="3s" begin="1s" repeatCount="indefinite"/><animate attributeName="y" values="270; 240; 210" dur="3s" begin="1s" repeatCount="indefinite"/></text><text x="240" y="210" font-size="52">Z<animate attributeName="opacity" values="0;1;0" dur="3s" begin="2s" repeatCount="indefinite"/><animate attributeName="y" values="210; 160; 110" dur="3s" begin="2s" repeatCount="indefinite"/></text></g></svg>