<svg xmlns="http://www.w3.org/2000/svg" viewBox="0 0 400 400" width="100%" height="100%"><g stroke="#FFCA28" stroke-width="8" stroke-linecap="round"><line x1="120" y1="120" x2="70" y2="70"/><line x1="280" y1="120" x2="330" y2="70"/><line x1="100" y1="170" x2="40" y2="160"/><line x1="300" y1="170" x2="360" y2="160"/></g><g fill="#D7CCC8" stroke="#8D6E63" stroke-width="5" stroke-linejoin="round"><path d="M150 160 C120 80 130 30 150 30 C170 30 180 80 180 160 Z"/><path d="M250 160 C280 80 270 30 250 30 C230 30 220 80 220 160 Z"/></g><g fill="#FFCDD2"><path d="M150 150 C135 90 140 45 150 45 C160 45 165 90 170 150 Z"/><path d="M250 150 C265 90 260 45 250 45 C240 45 235 90 230 150 Z"/></g><path d="M 140 270 C 100 350 100 400 100 400 L 300 400 C 300 400 300 350 260 270 Z" fill="#D7CCC8" stroke="#8D6E63" stroke-width="5" stroke-linejoin="round"/><path d="M 200 145 C 260 145 290 180 290 225 C 290 270 250 290 200 290 C 150 290 110 270 110 225 C 110 180 140 145 200 145 Z" fill="#D7CCC8" stroke="#8D6E63" stroke-width="5"/><path d="M 180 150 L 190 120 L 200 145 L 210 120 L 220 150" fill="#D7CCC8" stroke="#8D6E63" stroke-width="5" stroke-linejoin="round"/><path d="M 115 210 L 95 215 L 110 225 L 90 235 L 115 245" fill="#D7CCC8" stroke="#8D6E63" stroke-width="5" stroke-linejoin="round"/><path d="M 285 210 L 305 215 L 290 225 L 310 235 L 285 245" fill="#D7CCC8" stroke="#8D6E63" stroke-width="5" stroke-linejoin="round"/><g fill="#FFFFFF" stroke="#3E2723" stroke-width="5"><circle cx="155" cy="205" r="35"/><circle cx="245" cy="205" r="35"/></g><g fill="#3E2723"><circle cx="155" cy="205" r="5"/><circle cx="245" cy="205" r="5"/></g><g fill="#81D4FA" stroke="#0277BD" stroke-width="2"><path d="M 280 140 C 280 140 295 165 295 175 C 295 185 285 190 275 185 C 265 180 280 140 280 140 Z"/><path d="M 110 130 C 110 130 95 155 95 165 C 95 175 105 180 115 175 C 125 170 110 130 110 130 Z"/></g><polygon points="195,230 205,230 200,240" fill="#EF5350"/><path d="M 180 250 C 180 290 220 290 220 250 Z" fill="#3E2723" stroke="#3E2723" stroke-width="3"/><path d="M 185 270 C 190 290 210 290 215 270 Z" fill="#FF8A80"/><g fill="#D7CCC8" stroke="#8D6E63" stroke-width="5"><circle cx="130" cy="255" r="22"/><circle cx="270" cy="255" r="22"/></g><g stroke="#8D6E63" stroke-width="3" stroke-linecap="round"><line x1="120" y1="230" x2="60" y2="220"/><line x1="120" y1="240" x2="50" y2="245"/><line x1="280" y1="230" x2="340" y2="220"/><line x1="280" y1="240" x2="350" y2="245"/></g></svg>